<svg width="80" height="50" viewBox="0 0 80 50" fill="none" xmlns="http://www.w3.org/2000/svg"><path d="M0 0h80v50H0z"/><path d="M0 0h80v50H0z"/><path opacity=".9" fill-rule="evenodd" clip-rule="evenodd" d="M24.249 22.294h1.916V14h-3.113l-2.246 5.627L18.357 14h-3.052v7.853L12.126 14H9.348L6 22.294h2.031l.725-1.85h3.894l.718 1.85h3.803v-6.501l2.718 6.5h1.642l2.711-6.494.006 6.495zm-12.276-3.579l-1.28-3.306-1.271 3.306h2.551zm44.4 0l-1.292-3.306-1.289 3.306h2.582zm-22.567 3.579H27.56V14h6.247v1.727H29.43v1.495h4.273v1.701H29.43v1.656h4.377v1.714h-.002zm5.438-4.724c.364 0 .67-.006.925-.171.243-.135.386-.426.386-.789 0-.355-.15-.612-.393-.733-.22-.135-.562-.149-.887-.149h-2.302v1.842h2.271zm3.37-1.337c0 1.323-.832 2.006-1.318 2.211.41.165.76.458.925.699.265.413.31.78.31 1.522v1.629h-1.885l-.007-1.047v-.158c.005-.483.01-1.098-.296-1.457-.272-.292-.689-.356-1.362-.356h-2.007v3.017h-1.87V14h4.302c.955 0 1.66.027 2.263.396.592.372.947.913.947 1.838l-.002-.001zm1.085 6.06h1.907V14h-1.907v8.294zm24.043 0H65.09l-3.542-6.224v6.225h-3.81l-.728-1.85h-3.884l-.706 1.85h-2.188c-.909 0-2.06-.213-2.711-.917-.658-.705-1-1.66-1-3.166 0-1.23.205-2.354 1.008-3.243.605-.66 1.552-.966 2.84-.966h1.81v1.775h-1.772c-.682 0-1.067.109-1.439.492-.319.349-.537 1.01-.537 1.878 0 .888.166 1.53.514 1.949.29.328.811.427 1.303.427h.84L53.725 14h2.801l3.166 7.844V14h2.847l3.286 5.776V14h1.916v8.294-.001zm-2.136 11.66c0-.854-.195-1.358-.56-1.759-.423-.454-1.12-.64-2.135-.666l-1.007-.03c-.318 0-.53-.02-.727-.094a.632.632 0 01-.41-.617c0-.265.077-.463.281-.598.19-.137.41-.15.75-.15h3.43v-1.764H61.48c-1.96 0-2.673 1.266-2.673 2.47 0 2.454 1.913 2.508 3.59 2.557l.35.01c.324 0 .522.058.665.185a.73.73 0 01.228.548c0 .226-.09.413-.22.542-.157.155-.41.204-.764.204h-3.627v1.78h3.641c1.886 0 2.938-.833 2.938-2.617h-.001zm6.835-1.759c.363.4.559.905.559 1.76 0 1.783-1.052 2.617-2.938 2.617h-3.641v-1.78h3.627c.355 0 .606-.05.764-.205a.756.756 0 00.22-.541.725.725 0 00-.228-.548c-.142-.127-.34-.184-.666-.184a13.216 13.216 0 00-.35-.011c-1.676-.05-3.589-.104-3.589-2.558 0-1.203.713-2.468 2.673-2.468h3.749v1.765h-3.43c-.34 0-.562.013-.75.148-.204.136-.28.335-.28.598 0 .314.174.526.409.618.198.073.41.094.728.094l1.008.03c1.015.024 1.711.21 2.135.665zm-25.191-.34c.365 0 .674-.014.925-.17.242-.156.386-.443.386-.797 0-.356-.144-.612-.388-.746-.225-.144-.558-.151-.892-.151H44.98v1.863h2.271v.001zm2.054.861c.416.163.756.455.916.697.264.404.302.784.309 1.514v1.645h-1.876v-1.194c.005-.487.01-1.12-.302-1.468-.273-.298-.69-.369-1.373-.369H44.98v3.03h-1.878v-8.294h4.317c.947 0 1.636.043 2.25.39.59.378.96.896.96 1.842 0 1.325-.833 2-1.325 2.207zm8.602-4.44h-6.24v8.295h6.24v-1.722l-4.378-.006V33.19H57.8v-1.692h-4.272V29.99h4.378v-1.714zM39.05 32.103h-2.417v-2.114h2.437c.676 0 1.145.293 1.145 1.018 0 .717-.446 1.095-1.165 1.095zm-7.151.333l2.87 3.38v-6.651l-2.87 3.271zm-4.542 2.405h-4.6V33.19h4.107v-1.693H22.76V29.99h4.688l2.045 2.418-2.135 2.433zm11.608-1.054c1.635 0 3.257-.475 3.257-2.78 0-2.298-1.668-2.733-3.152-2.733h-5.974l-2.379 2.718-2.301-2.719h-7.521v8.295h7.407l2.393-2.746 2.302 2.746h3.636v-2.782h2.332v.001z" fill="#A6B4C2"/></svg>