<svg width="80" height="50" viewBox="0 0 80 50" fill="none" xmlns="http://www.w3.org/2000/svg"><path d="M0 0h80v50H0z"/><path d="M0 0h80v50H0z"/><path d="M47.71 24.76c-.01-4.01-2.648-7.43-6.365-8.783v17.57c3.718-1.357 6.356-4.774 6.364-8.786l.001-.001zm-13.46 8.783V15.98c-3.713 1.357-6.35 4.773-6.357 8.782.01 4.008 2.644 7.424 6.358 8.78l-.001.001zM37.8 9.911c-8.633.004-15.626 6.65-15.628 14.85.002 8.2 6.995 14.847 15.628 14.848 8.634-.002 15.63-6.647 15.632-14.847-.003-8.2-6.998-14.846-15.632-14.85v-.001zm-.038 31.1c-9.447.043-17.222-7.228-17.222-16.08 0-9.672 7.775-16.362 17.222-16.36h4.427c9.334-.002 17.855 6.686 17.855 16.36 0 8.85-8.52 16.08-17.856 16.08H37.76h.002z" fill="#A6B4C2"/></svg>