<svg width="80" height="50" viewBox="0 0 80 50" fill="none" xmlns="http://www.w3.org/2000/svg"><path d="M0 0h80v50H0z"/><path d="M0 0h80v50H0z"/><path d="M11.451 27.364c-.65.593-1.494.854-2.83.854h-.555v-7.095h.555c1.336 0 2.147.242 2.83.867.716.645 1.146 1.643 1.146 2.67 0 1.032-.43 2.06-1.146 2.704zm-2.416-8.058H6v10.727h3.02c1.604 0 2.766-.384 3.784-1.239a5.405 5.405 0 001.925-4.118c0-3.165-2.339-5.37-5.692-5.37h-.002zm6.645 10.727h2.067V19.306H15.68v10.727zm7.124-6.61c-1.24-.465-1.604-.77-1.604-1.352 0-.675.648-1.188 1.54-1.188.62 0 1.128.257 1.667.868l1.083-1.434a4.61 4.61 0 00-3.116-1.19c-1.876 0-3.306 1.317-3.306 3.073 0 1.478.667 2.235 2.608 2.94.81.29 1.222.483 1.43.612.414.274.62.66.62 1.111 0 .87-.682 1.513-1.604 1.513-.988 0-1.782-.5-2.258-1.43l-1.336 1.3c.953 1.415 2.098 2.043 3.671 2.043 2.15 0 3.657-1.447 3.657-3.523-.001-1.703-.699-2.474-3.051-3.345v.002zm3.702 1.253c0 3.152 2.448 5.596 5.597 5.596.89 0 1.653-.176 2.592-.624v-2.463c-.826.838-1.557 1.174-2.495 1.174-2.083 0-3.561-1.528-3.561-3.7 0-2.06 1.525-3.684 3.464-3.684.989 0 1.734.355 2.593 1.207v-2.46c-.907-.467-1.654-.66-2.543-.66-3.133 0-5.645 2.495-5.645 5.614h-.002zm24.59 1.834l-2.828-7.204h-2.262l4.5 11.003h1.112l4.58-11.003h-2.242l-2.864 7.205h.004zm6.037 3.522H63v-1.816h-3.8v-2.895h3.66v-1.818H59.2v-2.38H63v-1.818h-5.865v10.727zm9.906-5.788h-.604v-3.249h.637c1.287 0 1.987.546 1.987 1.59 0 1.078-.7 1.66-2.02 1.66zm4.148-1.772c0-2.008-1.367-3.167-3.752-3.167h-3.067v10.727h2.066v-4.308h.269l2.863 4.308h2.543l-3.336-4.52c1.558-.32 2.415-1.398 2.415-3.04zm.928-2.635h-.04v-.247h.04c.111 0 .166.04.166.122.004.083-.055.126-.166.126zm.392-.129c0-.188-.128-.29-.353-.29h-.3v.944h.221v-.367l.261.366h.272l-.307-.39a.258.258 0 00.206-.263z" fill="#93A3B5"/><path d="M72.196 20.563a.662.662 0 01-.648-.674.66.66 0 01.648-.675c.354 0 .644.307.644.675 0 .372-.29.675-.644.675v-.001zm.002-1.497a.813.813 0 00-.811.823c0 .456.363.822.811.822.442 0 .802-.37.802-.822a.816.816 0 00-.802-.823zm-36.827 5.642v-.003c0-3.15 2.525-5.705 5.638-5.705 3.116 0 5.641 2.555 5.641 5.705v.003c0 3.15-2.526 5.705-5.642 5.705-3.114 0-5.64-2.555-5.64-5.705" fill="#93A3B5"/></svg>