<svg width="80" height="50" viewBox="0 0 80 50" fill="none" xmlns="http://www.w3.org/2000/svg"><path d="M0 0h80v50H0z"/><path d="M0 0h80v50H0z"/><path d="M63.085 35.744c0 3.999-3.281 7.256-7.311 7.256H16V14.256C16 10.257 19.281 7 23.311 7h39.774v28.744z" fill="#fff"/><path d="M50.133 28.373h3.022c.087 0 .288-.03.375-.03.576-.115 1.065-.63 1.065-1.343a1.39 1.39 0 00-1.065-1.343c-.086-.03-.26-.03-.374-.03h-3.02v2.744l-.003.002z" fill="#A6B4C2"/><path d="M52.81 9.429c-2.878 0-5.238 2.313-5.238 5.2v5.4h7.396c.173 0 .375 0 .518.028 1.669.086 2.905.941 2.905 2.429 0 1.171-.834 2.17-2.388 2.371v.058c1.698.114 2.995 1.058 2.995 2.514 0 1.573-1.44 2.6-3.34 2.6h-8.116v10.572h7.685c2.88 0 5.238-2.315 5.238-5.2V9.428H52.81z" fill="#A6B4C2"/><path d="M54.22 22.83c0-.687-.49-1.143-1.064-1.23-.057 0-.2-.03-.288-.03h-2.734v2.514h2.734c.086 0 .26 0 .288-.028.575-.084 1.064-.54 1.064-1.227zM23.857 9.429c-2.878 0-5.238 2.313-5.238 5.2v12.83c1.468.712 2.995 1.171 4.519 1.171 1.813 0 2.791-1.087 2.791-2.574V20h4.49v6.029c0 2.344-1.468 4.256-6.447 4.256-3.021 0-5.382-.655-5.382-.655v10.94h7.684c2.878 0 5.238-2.313 5.238-5.2V9.43h-7.656.001zm14.477 0c-2.878 0-5.238 2.313-5.238 5.2v6.8c1.324-1.115 3.626-1.829 7.34-1.657 1.986.086 4.116.628 4.116.628v2.2c-1.065-.542-2.332-1.028-3.972-1.14-2.82-.201-4.52 1.17-4.52 3.57 0 2.428 1.698 3.8 4.52 3.571 1.64-.114 2.906-.629 3.972-1.142v2.2s-2.102.542-4.117.629c-3.711.17-6.014-.543-7.338-1.658v12.001h7.685c2.878 0 5.238-2.315 5.238-5.2V9.428h-7.685z" fill="#A6B4C2"/></svg>