<svg width="80" height="50" viewBox="0 0 80 50" fill="none" xmlns="http://www.w3.org/2000/svg"><path d="M0 0h80v50H0z"/><path d="M0 0h80v50H0z"/><path fill-rule="evenodd" clip-rule="evenodd" d="M32.429 38.912h15.143V11.698H32.43v27.214z" fill="#BECAD6"/><path fill-rule="evenodd" clip-rule="evenodd" d="M33.39 25.305c0-5.521 2.585-10.437 6.61-13.606A17.235 17.235 0 0029.304 8C19.748 8 12 15.748 12 25.305c0 9.56 7.748 17.308 17.305 17.308 4.038 0 7.753-1.383 10.696-3.7a17.273 17.273 0 01-6.61-13.607z" fill="#A6B4C2"/><path fill-rule="evenodd" clip-rule="evenodd" d="M67.461 36.03v-.673h-.175l-.202.464-.202-.464h-.176v.673h.125v-.507l.188.436h.129l.19-.437v.507h.123zm-1.11 0v-.557h.224v-.113h-.572v.113h.225v.558h.122v-.001zM68 25.305c0 9.558-7.746 17.307-17.305 17.307-4.036 0-7.75-1.383-10.695-3.7a17.277 17.277 0 006.61-13.607c0-5.521-2.585-10.437-6.61-13.606A17.24 17.24 0 0150.695 8C60.253 8 68 15.748 68 25.305z" fill="#CCD5DD"/></svg>