<svg width="80" height="50" viewBox="0 0 80 50" fill="none" xmlns="http://www.w3.org/2000/svg"><path d="M0 0h80v50H0z"/><path d="M0 0h80v50H0z"/><path d="M11.704 17.868c-1.67-.9-3.574-1.623-5.704-2.126l.09-.391h8.732c1.183.04 2.144.39 2.456 1.627l1.898 8.896.581 2.679 5.316-13.202h5.739L22.28 34.69h-5.74l-4.837-16.823zm23.33 16.844h-5.428L33 15.35h5.427l-3.395 19.36zm19.674-18.888l-.738 4.18-.49-.205a9.889 9.889 0 00-4.044-.741c-2.142 0-3.103.844-3.126 1.668 0 .906 1.163 1.504 3.061 2.39 3.127 1.38 4.578 3.068 4.556 5.272C53.883 32.405 50.175 35 44.48 35c-2.434-.02-4.78-.495-6.053-1.03l.76-4.346.715.309c1.764.721 2.925 1.03 5.092 1.03 1.563 0 3.238-.598 3.26-1.895 0-.845-.715-1.463-2.814-2.41-2.055-.928-4.801-2.472-4.757-5.253C40.706 17.636 44.48 15 49.84 15c2.1 0 3.798.432 4.868.824zm7.214 12.029h4.511c-.223-.968-1.25-5.603-1.25-5.603l-.38-1.668c-.268.721-.737 1.895-.714 1.854 0 0-1.72 4.305-2.167 5.417zm6.7-12.502L73 34.71h-5.025s-.492-2.224-.648-2.904H60.36l-1.14 2.904h-5.694l8.062-17.754c.558-1.256 1.542-1.606 2.836-1.606h4.198z" fill="#A6B4C2"/></svg>