<svg xmlns="http://www.w3.org/2000/svg" viewBox="0 0 1032.43 259.5"><title>ms-logo-db</title><g id="Layer_2" data-name="Layer 2"><g id="Layer_1-2" data-name="Layer 1"><g id="Layer_2-2" data-name="Layer 2"><g id="Layer_1-2-2" data-name="Layer 1-2"><path d="M103.42,198.68H78L75.55,157.3,60.77,198.11H41.86L28.92,160,26.5,198.68H1.19l7-99.53h26l16.35,46.07,1.85,5.54c.19-.57.85-2.46,2-5.69L71.15,99.15H97.31ZM79.54,197h22l-6-96.12H72.43l-16.5,44.79-2.84,8.11-.85,2.56-.71-2.56-2.71-8L33,100.85H9.72L3,197H24.9l2.56-41.52,1.7-.28,14,41.2H59.49l15.92-43.65,1.71.29v1.42Z" style="fill:#1b1b33;stroke:#1b1b33;stroke-miterlimit:10;stroke-width:2.22166109085083px"/><path d="M197.84,198.68H170.39l-8.95-26.59H142l-8.82,26.59H106.27L140,99.15h23.88ZM171.67,197h23.61l-32.71-96.12H141.25L108.68,197H132l8.68-26.73h21.89Zm-15.21-46.49h-9.67l4.83-14.36Zm-7.25-1.85H154l-2.42-7.11Z" style="fill:#1b1b33;stroke:#1b1b33;stroke-miterlimit:10;stroke-width:2.22166109085083px"/><path d="M280.06,198.68h-22.6l-29.15-46.5-1.57-2.7v49.2H201.58V99.15H225l29.29,46.35a3.51,3.51,0,0,1,.57.85V99.15H280ZM258.45,197h19.77V100.85H256.6v48.49l.15,3.27-1.71-2.7-2.13-3.56L224,100.85H203.28V197H225V155c0-3.89,0-6.73-.14-8.54v-3.27l1.7,2.71,3.27,5.4Z" style="fill:#1b1b33;stroke:#1b1b33;stroke-miterlimit:10;stroke-width:2.22166109085083px"/><path d="M342.05,198.68H316.18V157.16l-31.85-58H313.9l13.94,27.44,2,4a2.82,2.82,0,0,1,.28-.64,2.54,2.54,0,0,1,.29-.36l1.56-3.12,14.22-27.3H376l-34,58ZM318,197h22.32V156.73l.14-.14L373,100.85H347.17L333.52,127.3l-1.56,3-1.28,2.55-.85,1.57-.71-1.57c-.38-.66-.81-1.44-1.28-2.34s-1-2-1.57-3.2l-13.51-26.45H287.31L318,156.73Z" style="fill:#1b1b33;stroke:#1b1b33;stroke-miterlimit:10;stroke-width:2.22166109085083px"/><path d="M415.52,200.67a58,58,0,0,1-14.43-1.85A39.32,39.32,0,0,1,389.36,194l-4.13-2.85,6.83-22.61,7.39,4.55a28.81,28.81,0,0,0,8,3.49,34,34,0,0,0,8.74,1.21c4.46,0,7.5-.83,9.1-2.49a7.86,7.86,0,0,0,2.42-5.62,10.2,10.2,0,0,0-.57-3.55q-.57-1.59-3.27-3.49a38.34,38.34,0,0,0-8.25-4q-12.8-4.71-19.33-11.23a27.65,27.65,0,0,1-8.11-19.91,28.6,28.6,0,0,1,4.48-15.78,30.31,30.31,0,0,1,12.44-10.88,40.42,40.42,0,0,1,18.06-3.91q13.38,0,22.75,5.12l4.83,2.84-7.53,22-7-3.84a29.5,29.5,0,0,0-13.37-3.27c-3.31,0-5.78.62-7.39,1.85a5.57,5.57,0,0,0-2.42,4.55,6.63,6.63,0,0,0,.86,3.34,10.41,10.41,0,0,0,3.62,3.2,56.55,56.55,0,0,0,8.61,4,58.68,58.68,0,0,1,19.26,11.88q7.47,7.17,7.47,20.12a31.11,31.11,0,0,1-4.13,15.64,30.7,30.7,0,0,1-12.58,11.8Q427.76,200.66,415.52,200.67Z" style="fill:#1b1b33"/><path d="M481.92,198.68V121.9H455.76V99.15h77.06V121.9h-26.3v76.78Z" style="fill:#1b1b33"/><path d="M538.51,198.68V99.15H563v99.53Z" style="fill:#1b1b33"/><path d="M615.14,198.68a53.77,53.77,0,0,1-19-3.27A43,43,0,0,1,581,185.88a42.3,42.3,0,0,1-10.31-15.71,57.28,57.28,0,0,1-3.48-20.41,53.26,53.26,0,0,1,6.4-26.3,45.41,45.41,0,0,1,17.77-17.91,52.12,52.12,0,0,1,26-6.4q14.22,0,23,4.41l4.69,2.55-6.26,21.19-7-3.27a32.91,32.91,0,0,0-14.07-2.84q-12.51,0-19.41,7.39t-6.9,20.76q0,13.08,6.76,20.19t19.12,7.11a42.87,42.87,0,0,0,8-.78,29,29,0,0,0,6.76-2.06l7.11-3.42,5.54,21.33L640.17,194a40.41,40.41,0,0,1-11,3.48A78.49,78.49,0,0,1,615.14,198.68Z" style="fill:#1b1b33"/><path d="M698.75,198.68l-25.59-38.11-.86,1v37.11H648V99.15h24.3V128.3l23.75-29.15h31.42L690.22,142.8,728,198.68Z" style="fill:#1b1b33"/><path d="M730.88,198.68V99.15h59.86v22.61h-35.4v13.93H788.9V158.3H755.34v17.77h37.39v22.61Z" style="fill:#1b1b33"/><path d="M842.78,198.68l-2-3.27a35.61,35.61,0,0,1-2.56-6.76q-1.43-4.77-3.84-15.57v-.14a24.76,24.76,0,0,0-2.41-7.25,7.21,7.21,0,0,0-3.28-3.2,15.09,15.09,0,0,0-5.11-.92h-3.7v37.11h-24.3V102.13l5.26-1.13a119.77,119.77,0,0,1,22.6-1.85,61.58,61.58,0,0,1,17.14,2.06,29.94,29.94,0,0,1,12,6.61,24.75,24.75,0,0,1,6.68,9.31A30.38,30.38,0,0,1,861.55,129a28.85,28.85,0,0,1-10.81,22.75q5,5.82,7.11,15.35,4.14,18.48,6,21.76l5.27,9.81ZM824.58,140a19.28,19.28,0,0,0,8.6-2c2.7-1.32,4.06-3.88,4.06-7.67a9.72,9.72,0,0,0-2.35-6.47q-2.34-2.77-10.74-2.92a31.31,31.31,0,0,0-4.26.14V140Z" style="fill:#1b1b33"/><path d="M899.37,200.67a58,58,0,0,1-14.43-1.85A39.32,39.32,0,0,1,873.21,194l-4.12-2.85,6.82-22.61,7.39,4.55a28.81,28.81,0,0,0,8,3.49,34,34,0,0,0,8.74,1.21c4.46,0,7.5-.83,9.1-2.49a7.86,7.86,0,0,0,2.42-5.62,10.2,10.2,0,0,0-.57-3.55q-.57-1.59-3.27-3.49a38.34,38.34,0,0,0-8.25-4q-12.78-4.71-19.33-11.23A27.65,27.65,0,0,1,872,127.5a28.6,28.6,0,0,1,4.48-15.78A30.32,30.32,0,0,1,889,100.78a40.42,40.42,0,0,1,18.06-3.91q13.38,0,22.75,5.12l4.83,2.84-7.53,22-7-3.84a29.43,29.43,0,0,0-13.36-3.27c-3.33,0-5.8.61-7.4,1.85a5.56,5.56,0,0,0-2.41,4.55,6.62,6.62,0,0,0,.85,3.34,10.41,10.41,0,0,0,3.62,3.2,56.55,56.55,0,0,0,8.61,4,58.68,58.68,0,0,1,19.26,11.88q7.47,7.17,7.47,20.12a31.11,31.11,0,0,1-4.13,15.64A30.7,30.7,0,0,1,920,196.1Q911.6,200.66,899.37,200.67Z" style="fill:#1b1b33"/><polygon points="1027.68 205.78 1027.68 4.75 391.04 4.75 1027.68 4.75 1027.68 205.78" style="fill:none;stroke:#1b1b33;stroke-miterlimit:10;stroke-width:9.495664596557617px"/><polygon points="1000.85 232.64 1000.85 31.61 364.21 31.61 1000.85 31.61 1000.85 232.64" style="fill:none;stroke:#1b1b33;stroke-miterlimit:10;stroke-width:9.495664596557617px"/><polygon points="974.02 259.5 974.02 58.46 337.38 58.46 974.02 58.46 974.02 259.5" style="fill:none;stroke:#1b1b33;stroke-miterlimit:10;stroke-width:9.495664596557617px"/></g></g></g></g></svg>